<svg width="44" height="45" viewBox="0 0 44 45" fill="none" xmlns="http://www.w3.org/2000/svg">
<rect width="44" height="44" rx="14.6667" transform="matrix(1 0 0 -1 0 44.16)" fill="white"/>
<path d="M21.2493 34.5964C17.4196 34.5964 14.3844 33.4532 12.1437 31.1667C9.91443 28.8689 8.7998 25.7422 8.7998 21.7867V21.7524C8.7998 17.8084 9.92015 14.6931 12.1608 12.4067C14.4015 10.1089 17.431 8.95996 21.2493 8.95996C25.0905 8.95996 28.1314 10.1089 30.3721 12.4067C32.6128 14.7046 33.7331 17.8198 33.7331 21.7524V21.7867C33.7331 25.8909 32.5271 29.1033 30.1149 31.424L33.2873 36.0025H26.9082L25.5363 34.0133C24.1988 34.402 22.7698 34.5964 21.2493 34.5964ZM21.2493 28.6631C21.3865 28.6631 21.5694 28.6517 21.7981 28.6288L18.78 24.2732H25.1591L25.7936 25.1992C26.148 24.1932 26.3252 23.0557 26.3252 21.7867V21.7524C26.3252 19.6375 25.8679 17.9684 24.9533 16.7452C24.0387 15.5105 22.8041 14.8932 21.2493 14.8932C19.7174 14.8932 18.4942 15.5105 17.5796 16.7452C16.6651 17.9684 16.2078 19.6375 16.2078 21.7524V21.7867C16.2078 23.9131 16.6651 25.5936 17.5796 26.8283C18.4942 28.0515 19.7174 28.6631 21.2493 28.6631Z" fill="#0155B6"/>
</svg>
