<svg width="122" height="122" viewBox="0 0 122 122" fill="none" xmlns="http://www.w3.org/2000/svg">
<rect width="122" height="122" rx="40.6667" transform="matrix(1 0 0 -1 0 122)" fill="#0155B6"/>
<path d="M58.9195 95.4828C48.3007 95.4828 39.8849 92.313 33.6721 85.9734C27.4909 79.6021 24.4004 70.9327 24.4004 59.9652V59.8701C24.4004 48.9343 27.5068 40.2966 33.7196 33.957C39.9324 27.5857 48.3324 24.4 58.9195 24.4C69.57 24.4 78.0017 27.5857 84.2145 33.957C90.4273 40.3283 93.5337 48.966 93.5337 59.8701V59.9652C93.5337 71.3448 90.1896 80.2519 83.5013 86.6866L92.2975 99.3816H74.61L70.8063 93.8662C67.0976 94.9439 63.1353 95.4828 58.9195 95.4828ZM58.9195 79.0315C59.2999 79.0315 59.8071 78.9998 60.441 78.9364L52.0727 66.8595H69.7602L71.5195 69.427C72.5021 66.6376 72.9934 63.4837 72.9934 59.9652V59.8701C72.9934 54.006 71.7255 49.378 69.1897 45.9864C66.6538 42.563 63.2304 40.8513 58.9195 40.8513C54.672 40.8513 51.2803 42.563 48.7445 45.9864C46.2086 49.378 44.9407 54.006 44.9407 59.8701V59.9652C44.9407 65.861 46.2086 70.5206 48.7445 73.944C51.2803 77.3357 54.672 79.0315 58.9195 79.0315Z" fill="white"/>
</svg>
