<svg width="20" height="20" viewBox="0 0 20 20" fill="none" xmlns="http://www.w3.org/2000/svg">
<path d="M10 0C4.48702 0 0 4.48702 0 10C0 15.513 4.48702 20 10 20C15.513 20 20 15.513 20 10C20 4.48702 15.513 0 10 0ZM10 1.66667C14.6122 1.66667 18.3333 5.38776 18.3333 10C18.3333 14.6122 14.6122 18.3333 10 18.3333C5.38776 18.3333 1.66667 14.6122 1.66667 10C1.66667 5.38776 5.38776 1.66667 10 1.66667ZM8.98926 5L9.1569 11.6667H10.8431L11.0107 5H8.98926ZM10.0033 13.1755C9.31242 13.1755 8.89974 13.544 8.89974 14.1732C8.89974 14.7907 9.31326 15.1579 10.0033 15.1579C10.6883 15.1579 11.0986 14.7907 11.0986 14.1732C11.0986 13.544 10.6883 13.1755 10.0033 13.1755Z" fill="white"/>
</svg>
