<svg width="12" height="14" viewBox="0 0 12 14" fill="none" xmlns="http://www.w3.org/2000/svg">
<path d="M4.54837 0.232422C4.37498 0.232422 4.23501 0.372391 4.23501 0.545786C4.23501 0.71918 4.37498 0.859149 4.54837 0.859149H7.68201C7.85541 0.859149 7.99538 0.71918 7.99538 0.545786C7.99538 0.372391 7.85541 0.232422 7.68201 0.232422H4.54837ZM1.93701 1.69479C1.18807 1.69479 0.579102 2.30376 0.579102 3.0527C0.579102 3.80163 1.18807 4.4106 1.93701 4.4106H9.98001V10.9912C9.98001 11.97 9.18302 12.767 8.20428 12.767H4.0261C3.04736 12.767 2.25037 11.97 2.25037 10.9912V5.5596C2.25037 5.38621 2.11041 5.24624 1.93701 5.24624C1.76362 5.24624 1.62365 5.38621 1.62365 5.5596V10.9912C1.62365 12.3157 2.70162 13.3937 4.0261 13.3937H8.20428C9.52877 13.3937 10.6067 12.3157 10.6067 10.9912V4.37307C11.2042 4.23101 11.6513 3.69405 11.6513 3.0527C11.6513 2.30376 11.0423 1.69479 10.2934 1.69479H1.93701ZM1.93701 2.32151H10.2934C10.6966 2.32151 11.0246 2.6495 11.0246 3.0527C11.0246 3.45589 10.6966 3.78388 10.2934 3.78388H1.93701C1.53382 3.78388 1.20583 3.45589 1.20583 3.0527C1.20583 2.6495 1.53382 2.32151 1.93701 2.32151ZM4.65283 5.87297C4.47943 5.87297 4.33947 6.01294 4.33947 6.18633V10.9912C4.33947 11.1646 4.47943 11.3046 4.65283 11.3046C4.82622 11.3046 4.96619 11.1646 4.96619 10.9912V6.18633C4.96619 6.01294 4.82622 5.87297 4.65283 5.87297ZM7.57756 5.87297C7.40416 5.87297 7.26419 6.01294 7.26419 6.18633V10.9912C7.26419 11.1646 7.40416 11.3046 7.57756 11.3046C7.75095 11.3046 7.89092 11.1646 7.89092 10.9912V6.18633C7.89092 6.01294 7.75095 5.87297 7.57756 5.87297Z" fill="black"/>
</svg>
