<svg width="22" height="23" viewBox="0 0 22 23" fill="none" xmlns="http://www.w3.org/2000/svg">
<path d="M2.75 0.660034C1.24208 0.660034 0 1.90212 0 3.41003V8.29892C0 9.80684 1.24208 11.0489 2.75 11.0489H7.63889C9.14681 11.0489 10.3889 9.80684 10.3889 8.29892V3.41003C10.3889 1.90212 9.14681 0.660034 7.63889 0.660034H2.75ZM14.3611 0.660034C12.8532 0.660034 11.6111 1.90212 11.6111 3.41003V8.29892C11.6111 9.80684 12.8532 11.0489 14.3611 11.0489H19.25C20.7579 11.0489 22 9.80684 22 8.29892V3.41003C22 1.90212 20.7579 0.660034 19.25 0.660034H14.3611ZM2.75 2.49337H7.63889C8.15619 2.49337 8.55556 2.89273 8.55556 3.41003V8.29892C8.55556 8.81623 8.15619 9.21559 7.63889 9.21559H2.75C2.23269 9.21559 1.83333 8.81623 1.83333 8.29892V3.41003C1.83333 2.89273 2.23269 2.49337 2.75 2.49337ZM14.3611 2.49337H19.25C19.7673 2.49337 20.1667 2.89273 20.1667 3.41003V8.29892C20.1667 8.81623 19.7673 9.21559 19.25 9.21559H14.3611C13.8438 9.21559 13.4444 8.81623 13.4444 8.29892V3.41003C13.4444 2.89273 13.8438 2.49337 14.3611 2.49337ZM5.19444 4.3267C4.78925 4.3267 4.40066 4.48766 4.11414 4.77418C3.82763 5.06069 3.66667 5.44929 3.66667 5.85448C3.66667 6.25967 3.82763 6.64827 4.11414 6.93478C4.40066 7.22129 4.78925 7.38226 5.19444 7.38226C5.59964 7.38226 5.98823 7.22129 6.27475 6.93478C6.56126 6.64827 6.72222 6.25967 6.72222 5.85448C6.72222 5.44929 6.56126 5.06069 6.27475 4.77418C5.98823 4.48766 5.59964 4.3267 5.19444 4.3267ZM2.75 12.2711C1.24208 12.2711 0 13.5132 0 15.0211V19.91C0 21.418 1.24208 22.66 2.75 22.66H7.63889C9.14681 22.66 10.3889 21.418 10.3889 19.91V15.0211C10.3889 13.5132 9.14681 12.2711 7.63889 12.2711H2.75ZM14.3611 12.2711C12.8532 12.2711 11.6111 13.5132 11.6111 15.0211V19.91C11.6111 21.418 12.8532 22.66 14.3611 22.66H19.25C20.7579 22.66 22 21.418 22 19.91V15.0211C22 13.5132 20.7579 12.2711 19.25 12.2711H14.3611ZM2.75 14.1045H7.63889C8.15619 14.1045 8.55556 14.5038 8.55556 15.0211V19.91C8.55556 20.4273 8.15619 20.8267 7.63889 20.8267H2.75C2.23269 20.8267 1.83333 20.4273 1.83333 19.91V15.0211C1.83333 14.5038 2.23269 14.1045 2.75 14.1045ZM14.3611 14.1045H19.25C19.7673 14.1045 20.1667 14.5038 20.1667 15.0211V19.91C20.1667 20.4273 19.7673 20.8267 19.25 20.8267H14.3611C13.8438 20.8267 13.4444 20.4273 13.4444 19.91V15.0211C13.4444 14.5038 13.8438 14.1045 14.3611 14.1045ZM16.8056 15.6776C16.6494 15.6776 16.4938 15.7375 16.3747 15.8566L15.1966 17.0347C14.9583 17.273 14.9583 17.6581 15.1966 17.8965L16.3747 19.0745C16.613 19.3129 16.9981 19.3129 17.2364 19.0745L18.4145 17.8965C18.6528 17.6581 18.6528 17.273 18.4145 17.0347L17.2364 15.8566C17.1173 15.7375 16.9617 15.6776 16.8056 15.6776ZM5.19444 16.2422C5.08246 16.2422 4.97043 16.2958 4.90321 16.4033L3.61296 18.4682C3.46996 18.6967 3.63469 18.9934 3.90419 18.9934H6.4847C6.7542 18.9934 6.91954 18.6967 6.77593 18.4682L5.48568 16.4033C5.41845 16.2958 5.30643 16.2422 5.19444 16.2422Z" fill="white"/>
</svg>
