<svg width="17" height="17" viewBox="0 0 17 17" fill="none" xmlns="http://www.w3.org/2000/svg">
<path d="M8.49989 0.670044C4.18358 0.670044 0.669922 4.1837 0.669922 8.50001C0.669922 12.8163 4.18358 16.33 8.49989 16.33C12.8162 16.33 16.3299 12.8163 16.3299 8.50001C16.3311 8.40979 16.3145 8.32021 16.2808 8.23649C16.2472 8.15276 16.1972 8.07656 16.1339 8.0123C16.0705 7.94805 15.995 7.89703 15.9118 7.8622C15.8286 7.82738 15.7392 7.80945 15.649 7.80945C15.5588 7.80945 15.4694 7.82738 15.3862 7.8622C15.3029 7.89703 15.2275 7.94805 15.1641 8.0123C15.1007 8.07656 15.0508 8.15276 15.0172 8.23649C14.9835 8.32021 14.9668 8.40979 14.9681 8.50001C14.9681 12.0804 12.0803 14.9682 8.49989 14.9682C4.91951 14.9682 2.03166 12.0804 2.03166 8.50001C2.03166 4.91963 4.91951 2.03178 8.49989 2.03178C10.364 2.03178 12.0376 2.8175 13.2168 4.07438H11.9042C11.814 4.0731 11.7244 4.08977 11.6407 4.12341C11.557 4.15706 11.4808 4.20701 11.4165 4.27036C11.3523 4.33371 11.3012 4.4092 11.2664 4.49244C11.2316 4.57568 11.2137 4.66501 11.2137 4.75524C11.2137 4.84548 11.2316 4.93481 11.2664 5.01805C11.3012 5.10129 11.3523 5.17678 11.4165 5.24013C11.4808 5.30348 11.557 5.35343 11.6407 5.38707C11.7244 5.42072 11.814 5.43739 11.9042 5.43611H15.649V1.69134C15.6502 1.60031 15.6332 1.50995 15.5989 1.4256C15.5646 1.34126 15.5138 1.26465 15.4494 1.2003C15.385 1.13596 15.3083 1.08518 15.2239 1.05098C15.1396 1.01677 15.0492 0.999836 14.9581 1.00117C14.7777 1.00381 14.6057 1.07799 14.4799 1.20741C14.3541 1.33682 14.2848 1.51088 14.2873 1.69134V3.23194C12.8542 1.65958 10.7902 0.670044 8.49989 0.670044Z" fill="white"/>
</svg>
