<svg width="24" height="25" viewBox="0 0 24 25" fill="none" xmlns="http://www.w3.org/2000/svg">
<path d="M11.208 19.5872C6.94884 19.5872 3.48926 16.1276 3.48926 11.8684C3.48926 7.60924 6.94884 4.14966 11.208 4.14966C15.4672 4.14966 18.9268 7.60924 18.9268 11.8684C18.9268 16.1276 15.4672 19.5872 11.208 19.5872ZM11.208 5.33716C7.60592 5.33716 4.67676 8.26632 4.67676 11.8684C4.67676 15.4705 7.60592 18.3997 11.208 18.3997C14.8101 18.3997 17.7393 15.4705 17.7393 11.8684C17.7393 8.26632 14.8101 5.33716 11.208 5.33716Z" fill="white" fill-opacity="0.7"/>
<path d="M18.4602 21.2021C18.3969 21.2021 18.3335 21.1942 18.2781 21.1863C17.906 21.1388 17.2331 20.8855 16.8531 19.7534C16.6552 19.1596 16.7264 18.5659 17.051 18.1146C17.3756 17.6634 17.9219 17.41 18.5473 17.41C19.3548 17.41 19.9881 17.7188 20.2731 18.265C20.5581 18.8113 20.4789 19.508 20.0277 20.1809C19.4656 21.028 18.856 21.2021 18.4602 21.2021ZM17.9852 19.3813C18.1198 19.793 18.3098 19.9988 18.4364 20.0146C18.5631 20.0305 18.8006 19.88 19.046 19.5238C19.2756 19.1834 19.2914 18.938 19.236 18.8271C19.1806 18.7163 18.9589 18.5975 18.5473 18.5975C18.3019 18.5975 18.1198 18.6767 18.0169 18.8113C17.9219 18.9459 17.906 19.1517 17.9852 19.3813Z" fill="white" fill-opacity="0.7"/>
</svg>
